<svg xmlns="http://www.w3.org/2000/svg" width="264.088" height="264.278" viewBox="0 0 264.088 264.278"><g transform="translate(-42.915 -45)"><g transform="translate(0 -1)"><path d="M0,0S-.24,137.337.052,143.908c-1.47,10.1,14.96,18.32,16.94,18.177,71.473.143,9.042.41,105.019,0" transform="translate(53.5 137.5)" fill="none" stroke="#777" stroke-width="21"/><path d="M121.918,0s.24,137.337-.052,143.908c1.47,10.1-14.96,18.32-16.94,18.177-71.473.143-9.042.41-105.019,0" transform="translate(174.5 137.5)" fill="none" stroke="#777" stroke-width="21"/><rect width="31" height="23" transform="translate(88 163)" fill="#777"/><rect width="31" height="23" transform="translate(135 163)" fill="#777"/><rect width="31" height="23" transform="translate(182 163)" fill="#777"/><rect width="31" height="23" transform="translate(229 163)" fill="#777"/><rect width="31" height="23" transform="translate(88 202)" fill="#777"/><rect width="31" height="23" transform="translate(135 202)" fill="#777"/><rect width="31" height="23" transform="translate(182 202)" fill="#777"/><rect width="31" height="23" transform="translate(229 202)" fill="#777"/><rect width="31" height="23" transform="translate(88 241)" fill="#777"/><rect width="31" height="23" transform="translate(135 241)" fill="#777"/><rect width="31" height="23" transform="translate(182 241)" fill="#777"/><rect width="31" height="23" transform="translate(229 241)" fill="#777"/></g><path d="M24,0H49a0,0,0,0,1,0,0V71a0,0,0,0,1,0,0H0a0,0,0,0,1,0,0V24A24,24,0,0,1,24,0Z" transform="translate(43 67)" fill="#777"/><path d="M0,0H25A24,24,0,0,1,49,24V71a0,0,0,0,1,0,0H0a0,0,0,0,1,0,0V0A0,0,0,0,1,0,0Z" transform="translate(258 67)" fill="#777"/><path d="M-7270,183h-168V112h1.125v20.5c0,11.3,9.841,20.5,21.938,20.5S-7393,143.8-7393,132.5V112h77v19a22.024,22.024,0,0,0,22,22,22.025,22.025,0,0,0,22-22V112h2v71Z" transform="translate(7529 -45)" fill="#777"/><line y1="34" transform="translate(113.5 54.5)" fill="none" stroke="#777" stroke-linecap="round" stroke-width="19"/><line y1="34" transform="translate(235.5 55.5)" fill="none" stroke="#777" stroke-linecap="round" stroke-width="19"/></g></svg>