<svg xmlns="http://www.w3.org/2000/svg" width="93" height="81" viewBox="0 0 93 81"><g transform="translate(-1569 -890)"><g transform="translate(1569 890)" fill="#ba1616"><path d="M 84.36430358886719 80.49999237060547 L 8.635700225830078 80.49999237060547 C 7.011177539825439 80.49999237060547 5.555355548858643 79.66065979003906 4.741355419158936 78.25479888916016 C 3.927366733551025 76.84891510009766 3.924266576766968 75.16847229003906 4.733055591583252 73.75959777832031 L 42.59735488891602 7.802429676055908 C 43.40961074829102 6.387540817260742 44.86853408813477 5.542829513549805 46.5 5.542829513549805 C 48.13145446777344 5.542829513549805 49.59038925170898 6.387540817260742 50.40264511108398 7.802429676055908 L 88.26694488525391 73.75959777832031 C 89.07573699951172 75.16847229003906 89.0726318359375 76.84891510009766 88.25864410400391 78.25479888916016 C 87.44465637207031 79.66067504882813 85.98882293701172 80.49999237060547 84.36430358886719 80.49999237060547 Z" stroke="none"/><path d="M 46.4999885559082 6.042831420898438 C 45.04980087280273 6.042831420898438 43.75297546386719 6.793678283691406 43.03098678588867 8.051361083984375 L 5.166679382324219 74.00853729248047 C 4.44775390625 75.26085662841797 4.450508117675781 76.75458526611328 5.174057006835938 78.00425720214844 C 5.897598266601563 79.25392913818359 7.191673278808594 80 8.635696411132813 80 L 84.36429595947266 80 C 85.80831909179688 80 87.10238647460938 79.25392913818359 87.825927734375 78.00425720214844 C 88.54948425292969 76.75458526611328 88.55223846435547 75.26085662841797 87.83330535888672 74.00853729248047 L 49.96900177001953 8.051361083984375 C 49.24701309204102 6.793678283691406 47.95017623901367 6.042831420898438 46.4999885559082 6.042831420898438 M 46.49999237060547 5.042839050292969 C 48.18769073486328 5.042839050292969 49.87538909912109 5.879722595214844 50.83625793457031 7.553489685058594 L 88.7005615234375 73.51066589355469 C 90.61412811279297 76.84397125244141 88.20783233642578 81 84.36429595947266 81 L 8.635696411132813 81 C 4.792152404785156 81 2.385856628417969 76.84397125244141 4.299423217773438 73.51066589355469 L 42.16373062133789 7.553489685058594 C 43.12459945678711 5.879722595214844 44.81229782104492 5.042839050292969 46.49999237060547 5.042839050292969 Z" stroke="none" fill="#8c1818"/></g><g transform="translate(1611 953)" fill="#312b2b" stroke="#312b2b" stroke-width="2"><circle cx="5" cy="5" r="5" stroke="none"/><circle cx="5" cy="5" r="4" fill="none"/></g><g transform="translate(1609 913.5)" fill="#312b2b"><path d="M 9.505876541137695 33.40655899047852 L 5.073593139648438 33.40655899047852 L 0.5730408430099487 0.4999975860118866 L 13.00661277770996 0.4999975860118866 L 9.505876541137695 33.40655899047852 Z" stroke="none"/><path d="M 1.146081924438477 0.9999961853027344 L 5.509866714477539 32.90655899047852 L 9.056240081787109 32.90655899047852 L 12.45059204101563 0.9999961853027344 L 1.146081924438477 0.9999961853027344 M 9.5367431640625e-07 -3.814697265625e-06 L 13.56262111663818 -3.814697265625e-06 L 9.955501556396484 33.90655899047852 L 4.637321472167969 33.90655899047852 L 9.5367431640625e-07 -3.814697265625e-06 Z" stroke="none" fill="#312b2b"/></g></g></svg>