<svg xmlns="http://www.w3.org/2000/svg" width="14" height="22" viewBox="0 0 14 22"><g transform="translate(-1175 -868)"><g transform="translate(1175 868)" fill="#303030" stroke="#707070" stroke-width="1"><rect width="6" height="22" rx="2" stroke="none"/><rect x="0.5" y="0.5" width="5" height="21" rx="1.5" fill="none"/></g><g transform="translate(1183 868)" fill="#303030"><path d="M 4 21.5 L 2 21.5 C 1.172899961471558 21.5 0.5 20.82710075378418 0.5 20 L 0.5 2 C 0.5 1.172899961471558 1.172899961471558 0.5 2 0.5 L 4 0.5 C 4.827099800109863 0.5 5.5 1.172899961471558 5.5 2 L 5.5 20 C 5.5 20.82710075378418 4.827099800109863 21.5 4 21.5 Z" stroke="none"/><path d="M 2 1 C 1.448599815368652 1 1 1.448600769042969 1 2 L 1 20 C 1 20.55139923095703 1.448599815368652 21 2 21 L 4 21 C 4.551400184631348 21 5 20.55139923095703 5 20 L 5 2 C 5 1.448600769042969 4.551400184631348 1 4 1 L 2 1 M 2 0 L 4 0 C 5.104569911956787 0 6 0.8954296112060547 6 2 L 6 20 C 6 21.10457038879395 5.104569911956787 22 4 22 L 2 22 C 0.8954300880432129 22 0 21.10457038879395 0 20 L 0 2 C 0 0.8954296112060547 0.8954300880432129 0 2 0 Z" stroke="none" fill="#707070"/></g></g></svg>