<svg xmlns="http://www.w3.org/2000/svg" width="16" height="27" viewBox="0 0 16 27"><g transform="translate(-1283 -865)"><g transform="translate(1297 865) rotate(90)" fill="#303030"><path d="M 22.29305076599121 13.49999618530273 L 4.706950187683105 13.49999618530273 C 3.975229978561401 13.49999618530273 3.514029979705811 13.02816581726074 3.326410055160522 12.58659553527832 C 3.138780117034912 12.14503574371338 3.119270086288452 11.4855260848999 3.627180099487305 10.95879554748535 L 12.4202299118042 1.840075969696045 C 12.7055196762085 1.54421603679657 13.08899021148682 1.381286025047302 13.5 1.381286025047302 C 13.91100978851318 1.381286025047302 14.2944803237915 1.54421603679657 14.5797700881958 1.840075969696045 L 23.3728199005127 10.95879554748535 C 23.88072967529297 11.4855260848999 23.86121940612793 12.14503574371338 23.6735897064209 12.58659553527832 C 23.48596954345703 13.02816581726074 23.02477073669434 13.49999618530273 22.29305076599121 13.49999618530273 Z" stroke="none"/><path d="M 13.5 1.881285667419434 C 13.22599029541016 1.881285667419434 12.97033977508545 1.989906311035156 12.78015041351318 2.187146186828613 L 3.987110137939453 11.3058557510376 C 3.560970306396484 11.7477855682373 3.725889205932617 12.248215675354 3.786590576171875 12.39106559753418 C 3.8472900390625 12.53391647338867 4.093040466308594 12.99999618530273 4.706949234008789 12.99999618530273 L 22.29304885864258 12.99999618530273 C 22.90695953369141 12.99999618530273 23.1527099609375 12.53391647338867 23.21340942382813 12.39106559753418 C 23.27411079406738 12.248215675354 23.43902969360352 11.7477855682373 23.01289939880371 11.30586624145508 L 14.21984958648682 2.187146186828613 C 14.02964973449707 1.989906311035156 13.77400970458984 1.881285667419434 13.5 1.881285667419434 M 13.5 0.8812837600708008 C 14.02321720123291 0.8812837600708008 14.54643535614014 1.085190773010254 14.93968963623047 1.493005752563477 L 23.73274040222168 10.61172580718994 C 24.95742034912109 11.88177585601807 24.05738067626953 13.99999618530273 22.29304885864258 13.99999618530273 L 4.706949234008789 13.99999618530273 C 2.942619323730469 13.99999618530273 2.042579650878906 11.88177585601807 3.26725959777832 10.61172580718994 L 12.06031036376953 1.493005752563477 C 12.45356464385986 1.085190773010254 12.97678279876709 0.8812837600708008 13.5 0.8812837600708008 Z" stroke="none" fill="#707070"/></g><g transform="translate(1293 865)" fill="#303030" stroke="#707070" stroke-width="1"><rect width="6" height="27" rx="2" stroke="none"/><rect x="0.5" y="0.5" width="5" height="26" rx="1.5" fill="none"/></g></g></svg>