<svg xmlns="http://www.w3.org/2000/svg" width="20.176" height="23.859" viewBox="0 0 20.176 23.859"><g transform="translate(22 -1.571) rotate(90)" fill="#303030"><path d="M 23.42620086669922 21.50000190734863 L 3.573800086975098 21.50000190734863 C 3.023099899291992 21.50000190734863 2.533770084381104 21.21310234069824 2.264839887619019 20.73254203796387 C 1.99590003490448 20.25197219848633 2.007299900054932 19.68485260009766 2.2953200340271 19.21548080444336 L 12.22150993347168 3.039451599121094 C 12.49643039703369 2.591441631317139 12.97437000274658 2.323971748352051 13.5 2.323971748352051 C 14.02562999725342 2.323971748352051 14.50356960296631 2.591441631317139 14.77849006652832 3.039451599121094 L 24.70467948913574 19.21548080444336 C 24.99270057678223 19.68485260009766 25.00410079956055 20.25197219848633 24.73516082763672 20.73254203796387 C 24.46623039245605 21.21310234069824 23.97690010070801 21.50000190734863 23.42620086669922 21.50000190734863 Z" stroke="none"/><path d="M 13.5 2.823970794677734 C 13.3317403793335 2.823970794677734 12.91184997558594 2.870450973510742 12.64766979217529 3.300962448120117 L 2.721479415893555 19.47699165344238 C 2.444709777832031 19.92802238464355 2.615070343017578 20.33452224731445 2.701160430908203 20.48836135864258 C 2.787250518798828 20.64219093322754 3.044620513916016 21.00000190734863 3.573799133300781 21.00000190734863 L 23.42620086669922 21.00000190734863 C 23.95537948608398 21.00000190734863 24.21274948120117 20.64219093322754 24.2988395690918 20.48836135864258 C 24.38492965698242 20.33452224731445 24.55529022216797 19.92802238464355 24.27852058410645 19.47699165344238 L 14.35233020782471 3.300962448120117 C 14.08815002441406 2.870450973510742 13.6682596206665 2.823970794677734 13.5 2.823970794677734 M 13.5 1.823970794677734 C 14.15719509124756 1.823970794677734 14.81439018249512 2.141962051391602 15.20464992523193 2.77794075012207 L 25.13084030151367 18.95397186279297 C 25.94857978820801 20.28658103942871 24.98970031738281 22.00000190734863 23.42620086669922 22.00000190734863 L 3.573799133300781 22.00000190734863 C 2.010299682617188 22.00000190734863 1.051420211791992 20.28658103942871 1.869159698486328 18.95397186279297 L 11.79535007476807 2.77794075012207 C 12.18560981750488 2.141962051391602 12.84280490875244 1.823970794677734 13.5 1.823970794677734 Z" stroke="none" fill="#707070"/></g></svg>